<svg width="32" height="32" viewBox="0 0 32 32" fill="none" xmlns="http://www.w3.org/2000/svg">
<g clip-path="url(#clip0_667_3837)">
<path d="M18.8624 4.31026C17.9642 4.10503 17.0491 4 16.1413 4C15.2334 4 14.3171 4.10382 13.4201 4.31026C13.1895 4.36338 13.0266 4.56861 13.0266 4.80402V6.70785C12.2081 6.97827 11.4306 7.35251 10.7087 7.82575L9.21892 6.63783C9.03422 6.49054 8.77224 6.49054 8.58754 6.63783C7.86681 7.21127 7.2149 7.86197 6.6487 8.57183C6.0825 9.28169 5.59236 10.0628 5.19397 10.8934C5.09136 11.1058 5.15051 11.3618 5.33522 11.5091L6.82255 12.6958C6.52315 13.5046 6.3312 14.3461 6.25152 15.2068L4.39478 15.6306C4.1642 15.6837 4.00122 15.8877 4.00001 16.1243C3.9988 17.0455 4.10142 17.9618 4.30303 18.8467C4.50464 19.7316 4.81007 20.602 5.21088 21.4314C5.31349 21.6439 5.55011 21.7573 5.7807 21.7054L7.63743 21.2817C8.08291 22.0193 8.62134 22.693 9.24307 23.293L8.41611 25.0097C8.31349 25.2221 8.37144 25.4781 8.55615 25.6254C9.27566 26.2 10.0555 26.6913 10.8741 27.0849C11.6926 27.4785 12.563 27.7827 13.46 27.9867C13.6906 28.0398 13.926 27.9251 14.0298 27.7127L14.8567 25.996C15.7187 26.1082 16.5686 26.1082 17.4306 25.996L18.2576 27.7127C18.3433 27.8913 18.5232 28 18.7139 28C18.7513 28 18.7887 27.9964 18.8262 27.9879C19.7244 27.7839 20.5948 27.4809 21.4121 27.0861C22.2306 26.6926 23.0105 26.2012 23.73 25.6266C23.9147 25.4793 23.9726 25.2233 23.87 25.0109L23.0431 23.2942C23.6648 22.6942 24.2032 22.0205 24.6487 21.2829L26.5054 21.7066C26.736 21.7586 26.9726 21.6451 27.0753 21.4326C27.4761 20.6032 27.7815 19.734 27.9831 18.8479C28.1847 17.963 28.2873 17.0467 28.2861 16.1256C28.2861 15.8889 28.1219 15.6837 27.8914 15.6318L26.0346 15.208C25.9537 14.3473 25.763 13.5058 25.4636 12.697L26.9509 11.5103C27.1356 11.363 27.1936 11.107 27.0922 10.8946C26.6938 10.064 26.2036 9.2841 25.6374 8.57304C25.0712 7.86318 24.4193 7.21248 23.6986 6.63783C23.5139 6.49054 23.2519 6.49054 23.0672 6.63783L21.5775 7.82575C20.8543 7.35251 20.0781 6.97827 19.2596 6.70785V4.80523C19.2572 4.56861 19.093 4.36338 18.8624 4.31026ZM21.3046 8.87002C21.4893 9.00161 21.738 8.99437 21.9143 8.85312L23.3751 7.68813C23.9135 8.1493 24.406 8.65875 24.8431 9.20563C25.2789 9.75252 25.6664 10.3465 25.996 10.9742L24.5376 12.1368C24.3614 12.2781 24.2986 12.5183 24.3855 12.7272C24.7706 13.6555 24.994 14.6382 25.0495 15.6463C25.0616 15.872 25.2221 16.0628 25.4431 16.1123L27.2636 16.5276C27.2394 17.2362 27.1477 17.9388 26.992 18.6209C26.8362 19.303 26.6129 19.9755 26.328 20.6249L24.5087 20.2097C24.2889 20.159 24.062 20.2604 23.9521 20.4584C23.4644 21.3384 22.8366 22.1256 22.0845 22.798C21.9155 22.9489 21.8672 23.1928 21.965 23.3956L22.7751 25.0785C22.2052 25.501 21.5992 25.868 20.969 26.1722C20.3388 26.4765 19.6737 26.7203 18.9879 26.9026L18.1779 25.2197C18.0922 25.0423 17.9135 24.9324 17.7215 24.9324C17.6938 24.9324 17.6648 24.9348 17.637 24.9396C17.136 25.0241 16.6326 25.0676 16.14 25.0676C15.6475 25.0676 15.1441 25.0241 14.6431 24.9396C14.4197 24.9022 14.2 25.0157 14.1022 25.2197L13.2922 26.9026C12.6064 26.7215 11.9425 26.4765 11.3111 26.1722C10.6809 25.8692 10.0749 25.5022 9.50504 25.0785L10.3151 23.3956C10.4129 23.1915 10.3646 22.9477 10.1968 22.798C9.44468 22.1256 8.8157 21.3384 8.32919 20.4584C8.21933 20.2604 7.99357 20.159 7.77265 20.2097L5.95333 20.6249C5.66842 19.9755 5.44508 19.303 5.28935 18.6209C5.13361 17.9388 5.04307 17.2362 5.01772 16.5276L6.83824 16.1123C7.05917 16.0616 7.21973 15.872 7.2318 15.6463C7.28733 14.6382 7.51067 13.6567 7.89579 12.7272C7.98271 12.5183 7.91993 12.2769 7.74367 12.1368L6.28532 10.9742C6.6149 10.3465 7.00122 9.75252 7.43824 9.20563C7.87526 8.65875 8.36661 8.1493 8.90625 7.68813L10.367 8.85312C10.5433 8.99437 10.7932 9.00161 10.9767 8.87002C11.7988 8.28571 12.7054 7.84869 13.6712 7.57103C13.8885 7.50825 14.0382 7.31026 14.0382 7.0833V5.21569C15.4302 4.94769 16.8487 4.94769 18.2407 5.21569V7.08209C18.2407 7.30785 18.3904 7.50704 18.6077 7.56982C19.5759 7.84749 20.4825 8.28571 21.3046 8.87002Z" fill="white" stroke="white" stroke-width="0.5"/>
<path d="M10.3101 15.9169C10.3101 19.1318 12.9262 21.7479 16.141 21.7479C19.3559 21.7479 21.972 19.1318 21.972 15.9169C21.972 12.702 19.3559 10.0859 16.141 10.0859C12.9262 10.0859 10.3101 12.7008 10.3101 15.9169ZM20.9579 15.9169C20.9579 18.5729 18.797 20.7338 16.141 20.7338C13.4851 20.7338 11.3241 18.5729 11.3241 15.9169C11.3241 13.261 13.4851 11.1 16.141 11.1C18.797 11.1 20.9579 13.2598 20.9579 15.9169Z" fill="white" stroke="white" stroke-width="0.5"/>
<path d="M14.0855 15.6908C13.8863 15.494 13.5651 15.4952 13.3684 15.6944C13.1716 15.8936 13.1728 16.2147 13.372 16.4115L15.1551 18.1777C15.2541 18.2755 15.3833 18.325 15.5124 18.325C15.6428 18.325 15.772 18.2755 15.871 18.1765L19.1668 14.8807C19.3647 14.6827 19.3647 14.3616 19.1668 14.1636C18.9688 13.9656 18.6476 13.9656 18.4497 14.1636L15.5112 17.1021L14.0855 15.6908Z" fill="white" stroke="white" stroke-width="0.5"/>
</g>
<defs>
<clipPath id="clip0_667_3837">
<rect width="32" height="32" fill="white"/>
</clipPath>
</defs>
</svg>
