<svg width="48" height="43" viewBox="0 0 48 43" fill="none" xmlns="http://www.w3.org/2000/svg">
<g clip-path="url(#clip0_382_3720)">
<mask id="mask0_382_3720" style="mask-type:luminance" maskUnits="userSpaceOnUse" x="0" y="0" width="48" height="44">
<path d="M3.50575 31.1553L0 33.7396L3.64982 34.3617C4.01 35.271 4.65833 36.0607 5.49875 36.7307V27.9249C4.51426 28.9299 3.81791 30.0306 3.50575 31.1553ZM5.49875 27.9488C5.49875 27.9488 8.64432 33.2849 7.03552 37.7117C8.28414 38.3339 9.7969 38.7646 11.4537 38.956C11.6938 36.8503 12.2461 29.8631 9.0045 25.4841C7.63582 26.1781 6.43522 27.0156 5.49875 27.9488ZM14.1431 23.8091C13.2786 23.9527 12.4382 24.1681 11.6218 24.4313C12.7504 26.1302 15.1036 30.8442 13.3987 39.0518C13.7349 39.0518 14.071 39.0278 14.4072 39.0278C13.3747 40.0328 11.6698 41.325 9.58079 41.5882C9.1966 41.6361 8.90845 41.995 8.95648 42.4018C9.0045 42.7607 9.31666 43.0239 9.67684 43.0239C9.70085 43.0239 9.74887 43.0239 9.77289 43.0239C13.4467 42.5693 15.992 39.5303 16.5683 38.7885C16.6403 38.7885 16.7124 38.7646 16.7604 38.7646C17.1926 38.6928 17.6488 38.5971 18.081 38.5014C18.2971 36.276 18.7534 29.0974 16.2561 23.5938C15.5838 23.5938 14.8634 23.6895 14.1431 23.8091ZM40.9885 29.6477C40.004 29.5281 39.3317 27.9967 39.4517 26.872C39.5718 25.7952 40.4122 25.0056 41.3727 25.0534C40.7964 25.0534 40.2921 25.5559 40.2201 26.202C40.1481 26.9199 40.5563 27.877 41.1806 27.9488C41.8049 28.0206 42.3812 27.1831 42.4772 26.4652C42.5253 26.0345 42.4052 25.532 42.1411 25.2688C42.7654 25.6516 43.1496 26.4413 43.0535 27.2788C42.9335 28.3556 42.069 29.6238 41.1326 29.6238C41.0845 29.6477 41.0365 29.6477 40.9885 29.6477ZM28.2141 23.8809C27.6138 23.7852 27.0135 23.6895 26.4372 23.5698C25.2606 23.3066 24.1081 23.0195 22.9555 22.6845C20.6503 21.9905 18.4172 21.153 16.3282 20.1241C15.7999 19.8609 15.2956 19.5977 14.7914 19.2866C14.2871 18.9994 13.8069 18.6884 13.3507 18.3534C12.4382 17.6834 11.6218 16.9655 11.0695 16.128C10.7814 15.7212 10.5653 15.2905 10.4452 14.8598C10.3252 14.429 10.2771 13.9983 10.3012 13.5437C10.3732 12.6583 10.7814 11.749 11.4057 10.8876C12.03 10.0022 12.7504 9.23651 13.5668 8.78186C14.3832 8.30328 15.2716 8.13578 16.2321 8.27935C17.1926 8.42293 18.1771 8.85365 19.1376 9.40401C19.8579 9.83472 20.5543 10.3612 21.2266 10.9115C21.5388 11.8926 21.947 12.8497 22.3792 13.759C23.4837 16.0083 24.8764 18.0902 26.4132 20.0045C27.1816 20.9616 28.022 21.8709 28.9105 22.7323C29.1506 22.9477 29.3907 23.187 29.6308 23.4023C29.1506 23.522 28.6943 23.6895 28.2141 23.8809C28.2381 23.8809 28.2141 23.8809 28.2141 23.8809ZM30.3512 20.7941C30.087 20.2437 29.8229 19.6934 29.5588 19.143C29.0065 18.0423 28.4062 16.9894 27.7819 15.9366C26.5093 13.8787 25.0925 11.8687 23.3877 10.0501C23.3637 9.90651 23.3157 9.78687 23.2916 9.64329C23.0755 8.54257 22.9555 7.44185 23.0995 6.46077C23.1716 5.95826 23.2916 5.50362 23.4837 5.09683C23.6758 4.69004 23.94 4.33111 24.2521 4.04396C24.9004 3.44574 25.8369 3.03895 26.8694 2.79967C27.926 2.56038 28.9825 2.48859 29.8949 2.68002C30.8314 2.87145 31.5998 3.35003 32.2001 4.09182C32.8244 4.83361 33.2566 5.81469 33.5928 6.86756C33.9049 7.92042 34.097 9.069 34.2171 10.2176C34.4572 12.5387 34.4332 14.9316 34.2891 17.3005C34.1691 19.4062 33.977 21.512 33.7129 23.6416C32.6563 23.2109 31.4557 23.0673 30.2311 23.2348C29.967 22.8998 29.7029 22.5648 29.4387 22.2059C28.7424 21.2248 28.07 20.2198 27.4697 19.2148C26.5573 17.7312 25.7409 16.1998 25.0205 14.6444C25.5968 15.2905 26.1491 15.9605 26.7013 16.6305C28.2141 18.4969 29.6548 20.4352 31.0475 22.4213C30.8554 21.9188 30.5913 21.3684 30.3512 20.7941ZM28.3102 0C27.6138 0.0239288 26.9415 0.119644 26.2691 0.263216C25.5968 0.406789 24.9245 0.622148 24.2761 0.933222C23.6278 1.2443 22.9795 1.65109 22.4272 2.17752C21.8749 2.70395 21.4187 3.37396 21.1306 4.06789C20.8184 4.78575 20.6503 5.50362 20.5783 6.22148C20.5303 6.70006 20.5303 7.1547 20.5543 7.63328C20.5063 7.58542 20.4582 7.56149 20.3862 7.51363C19.3057 6.77184 18.057 6.12577 16.6163 5.86255C15.8959 5.71898 15.1276 5.69505 14.3832 5.83862C13.6388 5.95826 12.8944 6.22148 12.2461 6.58041C11.5978 6.93934 11.0215 7.39399 10.5173 7.87257C10.013 8.35114 9.58079 8.87757 9.1966 9.42794C8.81241 9.9783 8.45223 10.6004 8.16408 11.2705C7.89995 11.9405 7.68384 12.6583 7.63582 13.448C7.58779 14.2137 7.70785 15.0033 7.94797 15.7212C8.18809 16.4391 8.54827 17.0851 8.98049 17.6594C9.84492 18.808 10.9015 19.6455 12.006 20.3395C13.1106 21.0334 14.2631 21.5837 15.4157 22.0623C17.7689 22.9955 20.1701 23.5938 22.6193 23.9766C23.8439 24.1681 25.0685 24.2877 26.2931 24.3356C26.6533 24.3356 27.0135 24.3595 27.3737 24.3595C27.2536 24.4313 27.1576 24.4791 27.0615 24.5509C26.4372 24.9577 25.909 25.4124 25.4527 25.9388C23.6758 24.5031 20.9625 23.6656 17.8649 23.5938C18.8014 25.2927 21.1306 30.5331 19.8339 38.0228C22.2111 37.1853 24.1801 35.941 25.5488 34.5053C25.8369 34.7446 26.1491 34.936 26.4612 35.1274C26.1731 35.6539 25.6448 36.3957 24.6363 36.9221C22.3312 38.1185 21.7069 39.5064 21.2986 40.4157C21.0105 41.0618 20.3382 41.5403 19.5458 41.6839C19.1616 41.7557 18.8974 42.1146 18.9455 42.5214C19.0175 42.8804 19.3057 43.1196 19.6658 43.1196C19.7139 43.1196 19.7379 43.1196 19.7859 43.1196C21.0345 42.9043 22.1151 42.1146 22.5953 41.0378C22.9795 40.2243 23.4357 39.1953 25.2846 38.2142C26.7014 37.4725 27.4457 36.4196 27.8059 35.6539C28.7904 35.8932 29.8469 35.9171 30.9035 35.6778C30.9515 36.4914 31.2396 37.4485 32.1281 38.0707C32.8244 38.5493 33.2086 39.0518 33.2086 39.4825C33.2326 39.961 32.7764 40.4157 32.3922 40.7268C32.08 40.9661 32.032 41.4207 32.2961 41.7318C32.4402 41.8993 32.6563 41.995 32.8484 41.995C33.0165 41.995 33.1606 41.9471 33.3046 41.8275C34.2171 41.0857 34.6733 40.2721 34.6493 39.4346C34.6253 38.5253 34.049 37.6878 32.9685 36.8982C32.4162 36.5153 32.3202 35.7735 32.3442 35.2471C32.7524 35.0796 33.1606 34.8642 33.5688 34.601C34.6973 33.8592 35.5858 32.9021 36.1621 31.8253C37.2186 35.3428 39.8359 36.8982 39.8359 36.8982C39.8359 36.8982 45.1906 32.8542 45.1906 27.9249C45.1906 26.202 44.2541 24.6945 42.8854 23.8809C43.918 22.4691 45.3827 21.9427 46.2711 21.7513C46.4152 22.0623 46.7034 22.2777 47.0635 22.2777C47.5438 22.2777 47.952 21.8948 47.952 21.3923C47.952 20.9137 47.5678 20.507 47.0635 20.507C46.6073 20.507 46.2471 20.842 46.1991 21.2727C45.2146 21.488 43.5818 22.0863 42.4532 23.6416C42.021 23.4502 41.5648 23.3066 41.0845 23.2348C41.997 20.6745 44.1101 19.8609 45.2626 19.6216C45.4067 19.9327 45.6948 20.148 46.055 20.148C46.5353 20.148 46.9435 19.7652 46.9435 19.2627C46.9435 18.7602 46.5593 18.3773 46.055 18.3773C45.5988 18.3773 45.2386 18.7123 45.1906 19.143C43.918 19.4302 41.5648 20.3155 40.5803 23.187C40.5323 23.187 40.4842 23.187 40.4362 23.187C38.5153 23.187 36.9545 24.3356 36.1861 25.9866C36.1621 25.9388 36.1141 25.867 36.09 25.8191C35.5138 24.9577 34.7454 24.3116 33.8089 23.8809C33.905 23.5698 34.025 23.2588 34.1211 22.9477C34.3132 22.3734 34.4812 21.7752 34.6493 21.2009C34.9855 20.0284 35.2496 18.8319 35.4897 17.6355C35.946 15.2187 36.2341 12.778 36.1861 10.2654C36.1621 8.99722 36.042 7.72899 35.7299 6.46077C35.4177 5.19254 34.9375 3.87646 34.049 2.72788C33.6168 2.15359 33.0645 1.62716 32.4162 1.19644C31.7919 0.789649 31.0715 0.478575 30.3512 0.311074C29.7509 0.167501 29.1266 0.119644 28.5263 0.119644C28.5263 0 28.4302 0 28.3102 0Z" fill="white"/>
</mask>
<g mask="url(#mask0_382_3720)">
<path d="M48 0H0V43H48V0Z" fill="#F9E035"/>
</g>
</g>
<defs>
<clipPath id="clip0_382_3720">
<rect width="48" height="43" fill="white"/>
</clipPath>
</defs>
</svg>
