<svg width="351" height="190" viewBox="0 0 351 190" fill="none" xmlns="http://www.w3.org/2000/svg">
<rect y="178" width="47" height="12" fill="#C1BDCD"/>
<rect x="54" y="178" width="47" height="12" fill="#C1BDCD"/>
<rect x="109" y="178" width="47" height="12" fill="#C1BDCD"/>
<rect x="163" y="178" width="47" height="12" fill="#C1BDCD"/>
<rect width="47.2148" height="78.9262" fill="#C1BDCD"/>
<line y1="8.20654" x2="47.2148" y2="8.20654" stroke="black" stroke-width="0.5"/>
<line y1="33.5757" x2="47.2148" y2="33.5757" stroke="black" stroke-width="0.5"/>
<line y1="16.6631" x2="47.2148" y2="16.6631" stroke="black" stroke-width="0.5"/>
<line y1="25.1191" x2="47.2148" y2="25.1191" stroke="black" stroke-width="0.5"/>
<line y1="44.8506" x2="47.2148" y2="44.8506" stroke="black" stroke-width="0.5"/>
<line y1="53.3071" x2="47.2148" y2="53.3071" stroke="black" stroke-width="0.5"/>
<line y1="61.7637" x2="47.2148" y2="61.7637" stroke="black" stroke-width="0.5"/>
<line y1="70.2197" x2="47.2148" y2="70.2197" stroke="black" stroke-width="0.5"/>
<line x1="5.3877" y1="33.8257" x2="5.3877" y2="0.000175465" stroke="black" stroke-width="0.5"/>
<line x1="11.73" y1="33.8257" x2="11.73" y2="0.000175465" stroke="black" stroke-width="0.5"/>
<line x1="18.0723" y1="33.8257" x2="18.0723" y2="0.000175465" stroke="black" stroke-width="0.5"/>
<line x1="24.4146" y1="33.8257" x2="24.4146" y2="0.000175465" stroke="black" stroke-width="0.5"/>
<line x1="30.0522" y1="33.8257" x2="30.0522" y2="0.000175465" stroke="black" stroke-width="0.5"/>
<line x1="35.6897" y1="33.8257" x2="35.6897" y2="0.000175465" stroke="black" stroke-width="0.5"/>
<line x1="41.3274" y1="33.8257" x2="41.3274" y2="0.000175465" stroke="black" stroke-width="0.5"/>
<line x1="5.3877" y1="78.9263" x2="5.3877" y2="45.1008" stroke="black" stroke-width="0.5"/>
<line x1="11.73" y1="78.9263" x2="11.73" y2="45.1008" stroke="black" stroke-width="0.5"/>
<line x1="18.0723" y1="78.9263" x2="18.0723" y2="45.1008" stroke="black" stroke-width="0.5"/>
<line x1="24.4146" y1="78.9263" x2="24.4146" y2="45.1008" stroke="black" stroke-width="0.5"/>
<line x1="30.0522" y1="78.9263" x2="30.0522" y2="45.1008" stroke="black" stroke-width="0.5"/>
<line x1="35.6897" y1="78.9263" x2="35.6897" y2="45.1008" stroke="black" stroke-width="0.5"/>
<line x1="41.3274" y1="78.9263" x2="41.3274" y2="45.1008" stroke="black" stroke-width="0.5"/>
<rect y="85.8667" width="47.2148" height="78.9262" fill="#C1BDCD"/>
<line y1="94.0732" x2="47.2148" y2="94.0732" stroke="black" stroke-width="0.5"/>
<line y1="119.442" x2="47.2148" y2="119.442" stroke="black" stroke-width="0.5"/>
<line y1="102.53" x2="47.2148" y2="102.53" stroke="black" stroke-width="0.5"/>
<line y1="110.986" x2="47.2148" y2="110.986" stroke="black" stroke-width="0.5"/>
<line y1="130.717" x2="47.2148" y2="130.717" stroke="black" stroke-width="0.5"/>
<line y1="139.174" x2="47.2148" y2="139.174" stroke="black" stroke-width="0.5"/>
<line y1="147.63" x2="47.2148" y2="147.63" stroke="black" stroke-width="0.5"/>
<line y1="156.086" x2="47.2148" y2="156.086" stroke="black" stroke-width="0.5"/>
<line x1="5.3877" y1="119.692" x2="5.3877" y2="85.8669" stroke="black" stroke-width="0.5"/>
<line x1="11.73" y1="119.692" x2="11.73" y2="85.8669" stroke="black" stroke-width="0.5"/>
<line x1="18.0723" y1="119.692" x2="18.0723" y2="85.8669" stroke="black" stroke-width="0.5"/>
<line x1="24.4146" y1="119.692" x2="24.4146" y2="85.8669" stroke="black" stroke-width="0.5"/>
<line x1="30.0522" y1="119.692" x2="30.0522" y2="85.8669" stroke="black" stroke-width="0.5"/>
<line x1="35.6897" y1="119.692" x2="35.6897" y2="85.8669" stroke="black" stroke-width="0.5"/>
<line x1="41.3274" y1="119.692" x2="41.3274" y2="85.8669" stroke="black" stroke-width="0.5"/>
<line x1="5.3877" y1="164.793" x2="5.3877" y2="130.967" stroke="black" stroke-width="0.5"/>
<line x1="11.73" y1="164.793" x2="11.73" y2="130.967" stroke="black" stroke-width="0.5"/>
<line x1="18.0723" y1="164.793" x2="18.0723" y2="130.967" stroke="black" stroke-width="0.5"/>
<line x1="24.4146" y1="164.793" x2="24.4146" y2="130.967" stroke="black" stroke-width="0.5"/>
<line x1="30.0522" y1="164.793" x2="30.0522" y2="130.967" stroke="black" stroke-width="0.5"/>
<line x1="35.6897" y1="164.793" x2="35.6897" y2="130.967" stroke="black" stroke-width="0.5"/>
<line x1="41.3274" y1="164.793" x2="41.3274" y2="130.967" stroke="black" stroke-width="0.5"/>
<rect x="108.523" width="47.2148" height="78.9262" fill="#C1BDCD"/>
<line x1="108.523" y1="8.20654" x2="155.738" y2="8.20654" stroke="black" stroke-width="0.5"/>
<line x1="108.523" y1="33.5757" x2="155.738" y2="33.5757" stroke="black" stroke-width="0.5"/>
<line x1="108.523" y1="16.6631" x2="155.738" y2="16.6631" stroke="black" stroke-width="0.5"/>
<line x1="108.523" y1="25.1191" x2="155.738" y2="25.1191" stroke="black" stroke-width="0.5"/>
<line x1="108.523" y1="44.8506" x2="155.738" y2="44.8506" stroke="black" stroke-width="0.5"/>
<line x1="108.523" y1="53.3071" x2="155.738" y2="53.3071" stroke="black" stroke-width="0.5"/>
<line x1="108.523" y1="61.7637" x2="155.738" y2="61.7637" stroke="black" stroke-width="0.5"/>
<line x1="108.523" y1="70.2197" x2="155.738" y2="70.2197" stroke="black" stroke-width="0.5"/>
<line x1="113.911" y1="33.8257" x2="113.911" y2="0.000175465" stroke="black" stroke-width="0.5"/>
<line x1="120.253" y1="33.8257" x2="120.253" y2="0.000175465" stroke="black" stroke-width="0.5"/>
<line x1="126.596" y1="33.8257" x2="126.596" y2="0.000175465" stroke="black" stroke-width="0.5"/>
<line x1="132.938" y1="33.8257" x2="132.938" y2="0.000175465" stroke="black" stroke-width="0.5"/>
<line x1="138.576" y1="33.8257" x2="138.576" y2="0.000175465" stroke="black" stroke-width="0.5"/>
<line x1="144.213" y1="33.8257" x2="144.213" y2="0.000175465" stroke="black" stroke-width="0.5"/>
<line x1="149.851" y1="33.8257" x2="149.851" y2="0.000175465" stroke="black" stroke-width="0.5"/>
<line x1="113.911" y1="78.9263" x2="113.911" y2="45.1008" stroke="black" stroke-width="0.5"/>
<line x1="120.253" y1="78.9263" x2="120.253" y2="45.1008" stroke="black" stroke-width="0.5"/>
<line x1="126.596" y1="78.9263" x2="126.596" y2="45.1008" stroke="black" stroke-width="0.5"/>
<line x1="132.938" y1="78.9263" x2="132.938" y2="45.1008" stroke="black" stroke-width="0.5"/>
<line x1="138.576" y1="78.9263" x2="138.576" y2="45.1008" stroke="black" stroke-width="0.5"/>
<line x1="144.213" y1="78.9263" x2="144.213" y2="45.1008" stroke="black" stroke-width="0.5"/>
<line x1="149.851" y1="78.9263" x2="149.851" y2="45.1008" stroke="black" stroke-width="0.5"/>
<rect x="108.523" y="85.8667" width="47.2148" height="78.9262" fill="#C1BDCD"/>
<line x1="108.523" y1="94.0732" x2="155.738" y2="94.0732" stroke="black" stroke-width="0.5"/>
<line x1="108.523" y1="119.442" x2="155.738" y2="119.442" stroke="black" stroke-width="0.5"/>
<line x1="108.523" y1="102.53" x2="155.738" y2="102.53" stroke="black" stroke-width="0.5"/>
<line x1="108.523" y1="110.986" x2="155.738" y2="110.986" stroke="black" stroke-width="0.5"/>
<line x1="108.523" y1="130.717" x2="155.738" y2="130.717" stroke="black" stroke-width="0.5"/>
<line x1="108.523" y1="139.174" x2="155.738" y2="139.174" stroke="black" stroke-width="0.5"/>
<line x1="108.523" y1="147.63" x2="155.738" y2="147.63" stroke="black" stroke-width="0.5"/>
<line x1="108.523" y1="156.086" x2="155.738" y2="156.086" stroke="black" stroke-width="0.5"/>
<line x1="113.911" y1="119.692" x2="113.911" y2="85.8669" stroke="black" stroke-width="0.5"/>
<line x1="120.253" y1="119.692" x2="120.253" y2="85.8669" stroke="black" stroke-width="0.5"/>
<line x1="126.596" y1="119.692" x2="126.596" y2="85.8669" stroke="black" stroke-width="0.5"/>
<line x1="132.938" y1="119.692" x2="132.938" y2="85.8669" stroke="black" stroke-width="0.5"/>
<line x1="138.576" y1="119.692" x2="138.576" y2="85.8669" stroke="black" stroke-width="0.5"/>
<line x1="144.213" y1="119.692" x2="144.213" y2="85.8669" stroke="black" stroke-width="0.5"/>
<line x1="149.851" y1="119.692" x2="149.851" y2="85.8669" stroke="black" stroke-width="0.5"/>
<line x1="113.911" y1="164.793" x2="113.911" y2="130.967" stroke="black" stroke-width="0.5"/>
<line x1="120.253" y1="164.793" x2="120.253" y2="130.967" stroke="black" stroke-width="0.5"/>
<line x1="126.596" y1="164.793" x2="126.596" y2="130.967" stroke="black" stroke-width="0.5"/>
<line x1="132.938" y1="164.793" x2="132.938" y2="130.967" stroke="black" stroke-width="0.5"/>
<line x1="138.576" y1="164.793" x2="138.576" y2="130.967" stroke="black" stroke-width="0.5"/>
<line x1="144.213" y1="164.793" x2="144.213" y2="130.967" stroke="black" stroke-width="0.5"/>
<line x1="149.851" y1="164.793" x2="149.851" y2="130.967" stroke="black" stroke-width="0.5"/>
<rect x="54.2617" width="47.2148" height="78.9262" fill="#C1BDCD"/>
<line x1="54.2617" y1="8.20654" x2="101.476" y2="8.20654" stroke="black" stroke-width="0.5"/>
<line x1="54.2617" y1="33.5757" x2="101.476" y2="33.5757" stroke="black" stroke-width="0.5"/>
<line x1="54.2617" y1="16.6631" x2="101.476" y2="16.6631" stroke="black" stroke-width="0.5"/>
<line x1="54.2617" y1="25.1191" x2="101.476" y2="25.1191" stroke="black" stroke-width="0.5"/>
<line x1="54.2617" y1="44.8506" x2="101.476" y2="44.8506" stroke="black" stroke-width="0.5"/>
<line x1="54.2617" y1="53.3071" x2="101.476" y2="53.3071" stroke="black" stroke-width="0.5"/>
<line x1="54.2617" y1="61.7637" x2="101.476" y2="61.7637" stroke="black" stroke-width="0.5"/>
<line x1="54.2617" y1="70.2197" x2="101.476" y2="70.2197" stroke="black" stroke-width="0.5"/>
<line x1="59.6494" y1="33.8257" x2="59.6494" y2="0.000175465" stroke="black" stroke-width="0.5"/>
<line x1="65.9917" y1="33.8257" x2="65.9917" y2="0.000175465" stroke="black" stroke-width="0.5"/>
<line x1="72.334" y1="33.8257" x2="72.334" y2="0.000175465" stroke="black" stroke-width="0.5"/>
<line x1="78.6763" y1="33.8257" x2="78.6763" y2="0.000175465" stroke="black" stroke-width="0.5"/>
<line x1="84.314" y1="33.8257" x2="84.314" y2="0.000175465" stroke="black" stroke-width="0.5"/>
<line x1="89.9514" y1="33.8257" x2="89.9514" y2="0.000175465" stroke="black" stroke-width="0.5"/>
<line x1="95.5891" y1="33.8257" x2="95.5891" y2="0.000175465" stroke="black" stroke-width="0.5"/>
<line x1="59.6494" y1="78.9263" x2="59.6494" y2="45.1008" stroke="black" stroke-width="0.5"/>
<line x1="65.9917" y1="78.9263" x2="65.9917" y2="45.1008" stroke="black" stroke-width="0.5"/>
<line x1="72.334" y1="78.9263" x2="72.334" y2="45.1008" stroke="black" stroke-width="0.5"/>
<line x1="78.6763" y1="78.9263" x2="78.6763" y2="45.1008" stroke="black" stroke-width="0.5"/>
<line x1="84.314" y1="78.9263" x2="84.314" y2="45.1008" stroke="black" stroke-width="0.5"/>
<line x1="89.9514" y1="78.9263" x2="89.9514" y2="45.1008" stroke="black" stroke-width="0.5"/>
<line x1="95.5891" y1="78.9263" x2="95.5891" y2="45.1008" stroke="black" stroke-width="0.5"/>
<rect x="54.2617" y="85.8667" width="47.2148" height="78.9262" fill="#C1BDCD"/>
<line x1="54.2617" y1="94.0732" x2="101.476" y2="94.0732" stroke="black" stroke-width="0.5"/>
<line x1="54.2617" y1="119.442" x2="101.476" y2="119.442" stroke="black" stroke-width="0.5"/>
<line x1="54.2617" y1="102.53" x2="101.476" y2="102.53" stroke="black" stroke-width="0.5"/>
<line x1="54.2617" y1="110.986" x2="101.476" y2="110.986" stroke="black" stroke-width="0.5"/>
<line x1="54.2617" y1="130.717" x2="101.476" y2="130.717" stroke="black" stroke-width="0.5"/>
<line x1="54.2617" y1="139.174" x2="101.476" y2="139.174" stroke="black" stroke-width="0.5"/>
<line x1="54.2617" y1="147.63" x2="101.476" y2="147.63" stroke="black" stroke-width="0.5"/>
<line x1="54.2617" y1="156.086" x2="101.476" y2="156.086" stroke="black" stroke-width="0.5"/>
<line x1="59.6494" y1="119.692" x2="59.6494" y2="85.8669" stroke="black" stroke-width="0.5"/>
<line x1="65.9917" y1="119.692" x2="65.9917" y2="85.8669" stroke="black" stroke-width="0.5"/>
<line x1="72.334" y1="119.692" x2="72.334" y2="85.8669" stroke="black" stroke-width="0.5"/>
<line x1="78.6763" y1="119.692" x2="78.6763" y2="85.8669" stroke="black" stroke-width="0.5"/>
<line x1="84.314" y1="119.692" x2="84.314" y2="85.8669" stroke="black" stroke-width="0.5"/>
<line x1="89.9514" y1="119.692" x2="89.9514" y2="85.8669" stroke="black" stroke-width="0.5"/>
<line x1="95.5891" y1="119.692" x2="95.5891" y2="85.8669" stroke="black" stroke-width="0.5"/>
<line x1="59.6494" y1="164.793" x2="59.6494" y2="130.967" stroke="black" stroke-width="0.5"/>
<line x1="65.9917" y1="164.793" x2="65.9917" y2="130.967" stroke="black" stroke-width="0.5"/>
<line x1="72.334" y1="164.793" x2="72.334" y2="130.967" stroke="black" stroke-width="0.5"/>
<line x1="78.6763" y1="164.793" x2="78.6763" y2="130.967" stroke="black" stroke-width="0.5"/>
<line x1="84.314" y1="164.793" x2="84.314" y2="130.967" stroke="black" stroke-width="0.5"/>
<line x1="89.9514" y1="164.793" x2="89.9514" y2="130.967" stroke="black" stroke-width="0.5"/>
<line x1="95.5891" y1="164.793" x2="95.5891" y2="130.967" stroke="black" stroke-width="0.5"/>
<rect x="162.785" width="47.2148" height="78.9262" fill="#C1BDCD"/>
<line x1="162.785" y1="8.20654" x2="210" y2="8.20654" stroke="black" stroke-width="0.5"/>
<line x1="162.785" y1="33.5757" x2="210" y2="33.5757" stroke="black" stroke-width="0.5"/>
<line x1="162.785" y1="16.6631" x2="210" y2="16.6631" stroke="black" stroke-width="0.5"/>
<line x1="162.785" y1="25.1191" x2="210" y2="25.1191" stroke="black" stroke-width="0.5"/>
<line x1="162.785" y1="44.8506" x2="210" y2="44.8506" stroke="black" stroke-width="0.5"/>
<line x1="162.785" y1="53.3071" x2="210" y2="53.3071" stroke="black" stroke-width="0.5"/>
<line x1="162.785" y1="61.7637" x2="210" y2="61.7637" stroke="black" stroke-width="0.5"/>
<line x1="162.785" y1="70.2197" x2="210" y2="70.2197" stroke="black" stroke-width="0.5"/>
<line x1="168.173" y1="33.8257" x2="168.173" y2="0.000175465" stroke="black" stroke-width="0.5"/>
<line x1="174.515" y1="33.8257" x2="174.515" y2="0.000175465" stroke="black" stroke-width="0.5"/>
<line x1="180.857" y1="33.8257" x2="180.857" y2="0.000175465" stroke="black" stroke-width="0.5"/>
<line x1="187.2" y1="33.8257" x2="187.2" y2="0.000175465" stroke="black" stroke-width="0.5"/>
<line x1="192.837" y1="33.8257" x2="192.837" y2="0.000175465" stroke="black" stroke-width="0.5"/>
<line x1="198.475" y1="33.8257" x2="198.475" y2="0.000175465" stroke="black" stroke-width="0.5"/>
<line x1="204.113" y1="33.8257" x2="204.113" y2="0.000175465" stroke="black" stroke-width="0.5"/>
<line x1="168.173" y1="78.9263" x2="168.173" y2="45.1008" stroke="black" stroke-width="0.5"/>
<line x1="174.515" y1="78.9263" x2="174.515" y2="45.1008" stroke="black" stroke-width="0.5"/>
<line x1="180.857" y1="78.9263" x2="180.857" y2="45.1008" stroke="black" stroke-width="0.5"/>
<line x1="187.2" y1="78.9263" x2="187.2" y2="45.1008" stroke="black" stroke-width="0.5"/>
<line x1="192.837" y1="78.9263" x2="192.837" y2="45.1008" stroke="black" stroke-width="0.5"/>
<line x1="198.475" y1="78.9263" x2="198.475" y2="45.1008" stroke="black" stroke-width="0.5"/>
<line x1="204.113" y1="78.9263" x2="204.113" y2="45.1008" stroke="black" stroke-width="0.5"/>
<rect x="162.785" y="85.8667" width="47.2148" height="78.9262" fill="#C1BDCD"/>
<line x1="162.785" y1="94.0732" x2="210" y2="94.0732" stroke="black" stroke-width="0.5"/>
<line x1="162.785" y1="119.442" x2="210" y2="119.442" stroke="black" stroke-width="0.5"/>
<line x1="162.785" y1="102.53" x2="210" y2="102.53" stroke="black" stroke-width="0.5"/>
<line x1="162.785" y1="110.986" x2="210" y2="110.986" stroke="black" stroke-width="0.5"/>
<line x1="162.785" y1="130.717" x2="210" y2="130.717" stroke="black" stroke-width="0.5"/>
<line x1="162.785" y1="139.174" x2="210" y2="139.174" stroke="black" stroke-width="0.5"/>
<line x1="162.785" y1="147.63" x2="210" y2="147.63" stroke="black" stroke-width="0.5"/>
<line x1="162.785" y1="156.086" x2="210" y2="156.086" stroke="black" stroke-width="0.5"/>
<line x1="168.173" y1="119.692" x2="168.173" y2="85.8669" stroke="black" stroke-width="0.5"/>
<line x1="174.515" y1="119.692" x2="174.515" y2="85.8669" stroke="black" stroke-width="0.5"/>
<line x1="180.857" y1="119.692" x2="180.857" y2="85.8669" stroke="black" stroke-width="0.5"/>
<line x1="187.2" y1="119.692" x2="187.2" y2="85.8669" stroke="black" stroke-width="0.5"/>
<line x1="192.837" y1="119.692" x2="192.837" y2="85.8669" stroke="black" stroke-width="0.5"/>
<line x1="198.475" y1="119.692" x2="198.475" y2="85.8669" stroke="black" stroke-width="0.5"/>
<line x1="204.113" y1="119.692" x2="204.113" y2="85.8669" stroke="black" stroke-width="0.5"/>
<line x1="168.173" y1="164.793" x2="168.173" y2="130.967" stroke="black" stroke-width="0.5"/>
<line x1="174.515" y1="164.793" x2="174.515" y2="130.967" stroke="black" stroke-width="0.5"/>
<line x1="180.857" y1="164.793" x2="180.857" y2="130.967" stroke="black" stroke-width="0.5"/>
<line x1="187.2" y1="164.793" x2="187.2" y2="130.967" stroke="black" stroke-width="0.5"/>
<line x1="192.837" y1="164.793" x2="192.837" y2="130.967" stroke="black" stroke-width="0.5"/>
<line x1="198.475" y1="164.793" x2="198.475" y2="130.967" stroke="black" stroke-width="0.5"/>
<line x1="204.113" y1="164.793" x2="204.113" y2="130.967" stroke="black" stroke-width="0.5"/>
<rect x="217" width="6" height="6" fill="#C1BDCD"/>
<rect x="217" y="7" width="6" height="7" fill="#C1BDCD"/>
<rect x="217" y="15" width="6" height="6" fill="#C1BDCD"/>
<rect x="217" y="22" width="6" height="6" fill="#C1BDCD"/>
<rect x="217" y="29" width="6" height="6" fill="#C1BDCD"/>
<rect x="217" y="36" width="6" height="7" fill="#C1BDCD"/>
<rect x="217" y="44" width="6" height="6" fill="#C1BDCD"/>
<rect x="217" y="51" width="6" height="6" fill="#C1BDCD"/>
<rect x="217" y="58" width="6" height="6" fill="#C1BDCD"/>
<rect x="217" y="65" width="6" height="7" fill="#C1BDCD"/>
<rect x="217" y="73" width="6" height="6" fill="#C1BDCD"/>
<rect x="252" y="173" width="47" height="17" fill="#C1BDCD"/>
<rect x="252" y="153" width="47" height="16" fill="#C1BDCD"/>
<rect x="252" y="132" width="47" height="16" fill="#C1BDCD"/>
<rect x="252" y="111" width="47" height="17" fill="#C1BDCD"/>
<rect x="351" y="111" width="37" height="17" transform="rotate(90 351 111)" fill="#C1BDCD"/>
<rect x="351" y="12" width="37" height="41" transform="rotate(90 351 12)" fill="#C1BDCD"/>
<rect x="351" y="153" width="37" height="17" transform="rotate(90 351 153)" fill="#C1BDCD"/>
<rect x="252.5" y="54.5" width="98" height="51" stroke="#C1BDCD"/>
<line x1="302.5" y1="54" x2="302.5" y2="106" stroke="#C1BDCD"/>
<line x1="253" y1="79.5" x2="302" y2="79.5" stroke="#C1BDCD"/>
<rect x="290" y="67" width="9" height="9" fill="#C1BDCD"/>
<rect x="290" y="93" width="9" height="9" fill="#C1BDCD"/>
<rect x="288" y="117" width="9" height="9" fill="#393232"/>
<rect x="288" y="137" width="9" height="9" fill="#393232"/>
<rect x="288" y="158" width="9" height="9" fill="#393232"/>
<rect x="288" y="179" width="9" height="9" fill="#393232"/>
</svg>
