<svg width="32" height="32" viewBox="0 0 32 32" fill="none" xmlns="http://www.w3.org/2000/svg">
<g clip-path="url(#clip0_667_3812)">
<path d="M28 16C28 17.5759 27.6896 19.1363 27.0866 20.5922C26.4835 22.0481 25.5996 23.371 24.4853 24.4853C23.371 25.5996 22.0481 26.4835 20.5922 27.0866C19.1363 27.6896 17.5759 28 16 28C14.4241 28 12.8637 27.6896 11.4078 27.0866C9.95189 26.4835 8.62902 25.5996 7.51472 24.4853C6.40042 23.371 5.5165 22.0481 4.91345 20.5922C4.31039 19.1363 4 17.5759 4 16C4 12.8174 5.26428 9.76516 7.51472 7.51472C9.76516 5.26428 12.8174 4 16 4C19.1826 4 22.2348 5.26428 24.4853 7.51472C26.7357 9.76516 28 12.8174 28 16Z" stroke="white" stroke-width="1.75" stroke-linecap="round" stroke-linejoin="round"/>
<path d="M18.6668 12.0002C18.6668 12.7074 18.3859 13.3857 17.8858 13.8858C17.3857 14.3859 16.7074 14.6668 16.0002 14.6668C15.2929 14.6668 14.6146 14.3859 14.1145 13.8858C13.6144 13.3857 13.3335 12.7074 13.3335 12.0002C13.3335 11.2929 13.6144 10.6146 14.1145 10.1145C14.6146 9.61445 15.2929 9.3335 16.0002 9.3335C16.7074 9.3335 17.3857 9.61445 17.8858 10.1145C18.3859 10.6146 18.6668 11.2929 18.6668 12.0002Z" stroke="white" stroke-width="1.75" stroke-linecap="round" stroke-linejoin="round"/>
<path d="M16 21.3335H16.0133" stroke="white" stroke-width="2.5" stroke-linecap="round" stroke-linejoin="round"/>
</g>
<defs>
<clipPath id="clip0_667_3812">
<rect width="32" height="32" fill="white"/>
</clipPath>
</defs>
</svg>
