<svg width="128" height="42" viewBox="0 0 128 42" fill="none" xmlns="http://www.w3.org/2000/svg">
<g clip-path="url(#clip0_667_3851)">
<mask id="mask0_667_3851" style="mask-type:luminance" maskUnits="userSpaceOnUse" x="0" y="0" width="42" height="42">
<path d="M18.4899 26.7675C16.5661 28.0575 16.673 30.1 16.673 30.8525C19.2381 27.52 23.0857 27.6275 23.0857 27.6275C23.0857 27.6275 17.6349 29.67 16.1386 33.8625C16.0317 34.185 16.7799 34.615 16.8868 34.185C17.4212 33.0025 18.0624 32.1425 18.0624 32.1425C19.0243 32.5725 20.8413 33.0025 22.0169 32.035C23.6201 30.745 23.5132 27.95 25.7577 26.5525C26.0783 26.3375 24.2614 25.8 22.1238 25.8C20.8413 25.9075 19.4519 26.1225 18.4899 26.7675ZM11.436 35.1525V24.51L20.5206 19.2425L29.6053 24.51V35.1525L20.5206 40.42L11.436 35.1525ZM20.4138 18.275L10.7947 23.865C10.6878 23.9725 10.581 24.08 10.581 24.295V35.475C10.581 35.69 10.6878 35.7975 10.7947 35.905L20.4138 41.495C20.5206 41.495 20.5206 41.6025 20.6275 41.6025C20.7344 41.6025 20.7344 41.6025 20.8413 41.495L30.4603 35.905C30.5672 35.7975 30.6741 35.69 30.6741 35.475V24.295C30.6741 24.08 30.5672 23.9725 30.4603 23.865L20.8413 18.275C20.7344 18.275 20.7344 18.1675 20.6275 18.1675C20.5206 18.275 20.4138 18.275 20.4138 18.275ZM32.1704 9.245C32.0635 9.5675 31.9566 9.9975 31.7429 10.32C32.3841 10.75 33.346 11.7175 33.8804 12.5775C33.9873 12.685 33.8804 12.7925 33.7735 12.9H33.6667C33.5598 12.9 33.5598 12.9 33.4529 12.7925C32.9185 11.9325 31.9566 11.0725 31.4222 10.6425C31.2085 10.965 30.9947 11.18 30.781 11.395C29.9259 12.3625 28.8571 12.9 27.8952 12.9C27.7884 12.9 27.6815 12.9 27.6815 12.9C30.1397 15.1575 32.7048 16.6625 34.3079 16.77H34.2011C34.0942 16.77 32.5979 15.8025 30.6741 13.8675C30.5672 13.76 30.5672 13.6525 30.6741 13.545C30.781 13.4375 30.8878 13.4375 30.9947 13.545C32.8116 15.3725 34.4148 16.34 34.4148 16.34C34.5217 16.4475 34.5217 16.555 34.5217 16.6625C34.5217 16.77 34.4148 16.77 34.3079 16.77C34.4148 16.77 34.4148 16.77 34.5217 16.77C35.0561 16.77 35.3767 16.6625 35.6974 16.34C36.873 15.1575 35.3767 11.7175 32.2772 8.2775C32.2772 8.4925 32.1704 8.815 32.1704 9.245ZM8.12275 15.5875C7.90899 15.48 7.90899 15.3725 7.90899 15.1575L8.12275 14.7275C8.22963 14.62 8.33651 14.5125 8.55026 14.5125C8.65714 14.62 8.76402 14.7275 8.76402 14.9425L8.55026 15.3725C8.55026 15.48 8.33651 15.5875 8.22963 15.5875H8.12275ZM10.0466 14.405C9.93968 14.2975 9.8328 14.19 9.8328 13.975L10.0466 13.545C10.1534 13.4375 10.2603 13.33 10.4741 13.33C10.581 13.4375 10.6878 13.545 10.6878 13.76L10.4741 14.19C10.4741 14.2975 10.2603 14.405 10.1534 14.405C10.0466 14.405 10.0466 14.405 10.0466 14.405ZM7.58836 13.4375C7.48148 13.33 7.3746 13.2225 7.3746 13.0075L7.58836 12.5775C7.69524 12.47 7.80212 12.3625 8.01587 12.3625C8.12275 12.47 8.22963 12.5775 8.22963 12.7925L8.01587 13.2225C8.01587 13.33 7.80212 13.4375 7.69524 13.4375C7.58836 13.4375 7.58836 13.4375 7.58836 13.4375ZM11.8635 13.2225C11.7566 13.115 11.6497 13.0075 11.6497 12.7925L11.8635 12.3625C11.9704 12.255 12.0772 12.1475 12.291 12.1475C12.3979 12.255 12.5048 12.3625 12.5048 12.5775L12.291 13.0075C12.291 13.115 12.0772 13.2225 11.9704 13.2225C11.9704 13.2225 11.9704 13.2225 11.8635 13.2225ZM9.40529 12.255C9.29841 12.1475 9.19153 12.04 9.19153 11.825L9.40529 11.395C9.51217 11.2875 9.61905 11.18 9.8328 11.18C9.93968 11.2875 10.0466 11.395 10.0466 11.61L9.8328 12.04C9.8328 12.1475 9.61905 12.255 9.51217 12.255C9.51217 12.255 9.51217 12.255 9.40529 12.255ZM6.94709 11.18C6.84021 11.0725 6.73333 10.965 6.73333 10.75L6.94709 10.32C7.05397 10.2125 7.16085 10.105 7.3746 10.105C7.48148 10.2125 7.58836 10.32 7.58836 10.535L7.3746 10.965C7.3746 11.0725 7.16085 11.18 7.05397 11.18C7.05397 11.2875 7.05397 11.18 6.94709 11.18ZM5.34391 9.5675C5.34391 9.5675 5.34391 9.675 5.34391 9.5675C4.9164 11.0725 5.34391 13.33 5.87831 15.1575C6.4127 16.8775 8.33651 17.63 9.93968 16.77C11.5429 15.8025 13.4667 14.5125 14.1079 13.2225C14.6423 12.255 14.5354 11.18 14.1079 10.2125C14.1079 10.32 14.0011 10.4275 14.0011 10.535C13.8942 10.8575 13.5735 11.0725 13.2529 11.0725H13.146C12.8254 10.965 12.291 10.8575 11.7566 10.4275C11.436 10.75 11.0085 10.965 10.4741 10.965H10.3672H10.2603C9.93968 10.965 9.72593 10.8575 9.51217 10.535C9.40529 10.4275 9.08466 9.9975 9.08466 9.3525C8.44339 9.245 7.90899 9.03 7.58836 8.815C7.26772 8.6 7.16085 8.17 7.26772 7.8475C7.3746 7.74 7.3746 7.6325 7.48148 7.525C6.51958 7.8475 5.66455 8.6 5.34391 9.5675ZM27.7884 11.18C27.6815 11.0725 27.6815 10.8575 27.8952 10.6425C28.109 10.4275 28.4296 10.32 28.5365 10.4275C28.6434 10.535 28.5365 10.8575 28.3228 11.0725C28.2159 11.18 28.109 11.2875 28.0021 11.2875C27.7884 11.18 27.7884 11.18 27.7884 11.18ZM29.1778 10.4275C29.0709 10.32 29.0709 9.89 29.1778 9.7825C29.2847 9.675 29.7122 9.7825 29.819 9.89C29.9259 9.9975 29.9259 10.2125 29.7122 10.4275C29.6053 10.535 29.4984 10.6425 29.3915 10.6425C29.1778 10.4275 29.1778 10.4275 29.1778 10.4275ZM28.109 9.675C28.0021 9.5675 28.0021 9.3525 28.2159 9.1375C28.4296 8.9225 28.6434 8.9225 28.7503 9.03C28.8571 9.1375 28.8571 9.5675 28.8571 9.675C28.8571 9.675 28.7503 9.675 28.6434 9.675C28.3228 9.7825 28.109 9.7825 28.109 9.675ZM29.2847 9.245C29.1778 9.1375 29.3915 8.7075 29.6053 8.4925C29.819 8.2775 30.0328 8.2775 30.1397 8.385C30.2466 8.4925 30.2466 8.7075 30.0328 8.9225C29.9259 9.1375 29.6053 9.3525 29.2847 9.245C29.3915 9.3525 29.3915 9.3525 29.2847 9.245ZM27.6815 8.2775C26.3989 9.5675 25.9714 11.2875 26.8265 12.04C27.1471 12.3625 27.4677 12.47 27.8952 12.47C28.7503 12.47 29.7122 11.9325 30.5672 11.18C31.2085 10.535 31.636 9.89 31.7429 9.1375C31.9566 8.385 31.8497 7.74 31.4222 7.4175C31.1016 7.095 30.781 6.9875 30.3534 6.9875C29.4984 6.9875 28.4296 7.4175 27.6815 8.2775ZM12.6116 5.805C11.9704 5.9125 11.436 6.45 11.0085 7.4175C10.6878 7.2025 10.0466 6.88 9.19153 6.9875C8.22963 7.2025 7.90899 7.74 7.80212 8.0625C7.80212 8.17 7.80212 8.2775 7.90899 8.2775C8.22963 8.4925 8.8709 8.815 9.61905 8.7075C9.51217 9.46 9.8328 9.9975 10.0466 10.32C10.1534 10.4275 10.2603 10.4275 10.3672 10.4275C10.6878 10.32 11.3291 10.2125 11.6497 9.5675C12.1841 10.2125 12.9323 10.4275 13.2529 10.4275C13.3598 10.4275 13.4667 10.4275 13.4667 10.32C13.5735 9.9975 13.7873 9.3525 13.2529 8.6C12.7185 7.955 12.0772 7.6325 11.6497 7.6325C11.9704 6.88 12.3979 6.45 12.7185 6.45C12.9323 6.45 13.0392 6.235 12.9323 6.1275C12.9323 5.9125 12.8254 5.805 12.6116 5.805C12.7185 5.805 12.6116 5.805 12.6116 5.805ZM2.13757 17.63L0.961905 16.985V15.91V15.48V13.4375V13.0075V11.0725V10.75V8.7075V8.2775V6.3425L10.0466 1.075L11.8635 2.15L16.4593 4.8375L17.528 5.4825L18.4899 6.02L19.2381 6.3425V7.4175V16.985L10.1534 22.2525L8.44339 21.285L8.12275 21.07L6.4127 20.1025L6.09206 19.8875L4.38201 18.92L4.06138 18.705L2.13757 17.63ZM9.8328 0.1075L0.213757 5.6975C0.106878 5.6975 0 5.9125 0 6.02V17.2C0 17.415 0.106878 17.5225 0.213757 17.63L9.8328 23.22C9.93968 23.22 9.93968 23.3275 10.0466 23.3275C10.1534 23.3275 10.1534 23.3275 10.2603 23.22L19.8794 17.63C19.9862 17.5225 20.0931 17.415 20.0931 17.2V6.02C20.0931 5.805 19.9862 5.6975 19.8794 5.59L10.2603 0C10.2603 0 10.1534 0 10.0466 0C9.93968 0 9.93968 0 9.8328 0.1075ZM22.1238 16.8775V6.3425L31.2085 1.075L40.2931 6.3425V16.985L31.2085 22.2525L22.1238 16.8775ZM30.9947 0.1075L21.3757 5.6975C21.2688 5.805 21.1619 5.9125 21.1619 6.1275V17.2C21.1619 17.415 21.2688 17.5225 21.3757 17.63L30.9947 23.22C31.1016 23.22 31.1016 23.3275 31.2085 23.3275C31.3153 23.3275 31.3153 23.3275 31.4222 23.22L41.0413 17.63C41.1481 17.5225 41.255 17.415 41.255 17.2V6.02C41.255 5.805 41.1481 5.6975 41.0413 5.59L31.4222 0C31.4222 0 31.3153 0 31.2085 0C31.1016 0 31.1016 0 30.9947 0.1075Z" fill="white"/>
</mask>
<g mask="url(#mask0_667_3851)">
<path d="M41.255 0H0V41.495H41.255V0Z" fill="url(#paint0_linear_667_3851)"/>
</g>
<path fill-rule="evenodd" clip-rule="evenodd" d="M52.02 33.9492V7.58893H55.5852V18.3966H68.5372V7.58893H72.1024V33.9492H68.5372V21.3934H55.5852V33.9492H52.02ZM79.0606 33.9492V14.1768H82.3072V33.9492H79.0606ZM79.0606 10.5944V6.47803H82.3158V10.5944H79.0606ZM94.1827 33.9492L86.768 14.1768H90.2127L96.3959 30.7715L102.57 14.1768H106.015L98.6005 33.9492H94.1827ZM127.406 23.2535V24.8381H112.474C112.612 27.0771 113.28 28.7851 114.48 29.962C115.697 31.1275 117.382 31.7102 119.535 31.7102C120.781 31.7102 121.987 31.5552 123.152 31.2451C124.329 30.9409 125.495 30.4816 126.649 29.8673V32.9416C125.483 33.4354 124.289 33.8114 123.066 34.0698C121.843 34.3281 120.6 34.4573 119.337 34.4573C116.185 34.4573 113.685 33.5416 111.837 31.7102C109.999 29.873 109.081 27.39 109.081 24.2611C109.081 21.0231 109.953 18.4568 111.699 16.5623C113.45 14.6562 115.809 13.7032 118.778 13.7032C121.436 13.7032 123.534 14.5615 125.073 16.2781C126.629 17.9832 127.406 20.3083 127.406 23.2535ZM112.577 22.3149L124.16 22.2976C124.137 20.5179 123.637 19.0998 122.661 18.0435C121.691 16.9814 120.408 16.4503 118.812 16.4503C116.998 16.4503 115.542 16.9642 114.446 17.9918C113.367 19.0137 112.744 20.4547 112.577 22.3149Z" fill="white"/>
</g>
<defs>
<linearGradient id="paint0_linear_667_3851" x1="-0.0119804" y1="20.7546" x2="41.2893" y2="20.7546" gradientUnits="userSpaceOnUse">
<stop stop-color="#FBB040"/>
<stop offset="1" stop-color="#F9EC32"/>
</linearGradient>
<clipPath id="clip0_667_3851">
<rect width="128" height="42" fill="white"/>
</clipPath>
</defs>
</svg>
