<svg width="61" height="61" viewBox="0 0 61 61" fill="none" xmlns="http://www.w3.org/2000/svg">
<circle cx="30.5" cy="30.5" r="30.5" fill="#F1B947"/>
<g clip-path="url(#clip0_690_5402)">
<path d="M19.3333 39.3333C19.3333 40.2174 19.6844 41.0652 20.3096 41.6904C20.9347 42.3155 21.7825 42.6667 22.6666 42.6667C23.5506 42.6667 24.3985 42.3155 25.0236 41.6904C25.6487 41.0652 25.9999 40.2174 25.9999 39.3333C25.9999 38.4493 25.6487 37.6014 25.0236 36.9763C24.3985 36.3512 23.5506 36 22.6666 36C21.7825 36 20.9347 36.3512 20.3096 36.9763C19.6844 37.6014 19.3333 38.4493 19.3333 39.3333Z" stroke="#393232" stroke-width="1.75" stroke-linecap="round" stroke-linejoin="round"/>
<path d="M36 39.3333C36 40.2174 36.3512 41.0652 36.9763 41.6904C37.6014 42.3155 38.4493 42.6667 39.3333 42.6667C40.2174 42.6667 41.0652 42.3155 41.6904 41.6904C42.3155 41.0652 42.6667 40.2174 42.6667 39.3333C42.6667 38.4493 42.3155 37.6014 41.6904 36.9763C41.0652 36.3512 40.2174 36 39.3333 36C38.4493 36 37.6014 36.3512 36.9763 36.9763C36.3512 37.6014 36 38.4493 36 39.3333Z" stroke="#393232" stroke-width="1.75" stroke-linecap="round" stroke-linejoin="round"/>
<path d="M19.3333 39.3335H15.9999V32.6668M14.3333 19.3335H32.6666V39.3335M25.9999 39.3335H35.9999M42.6666 39.3335H45.9999V29.3335M45.9999 29.3335H32.6666M45.9999 29.3335L40.9999 21.0002H32.6666" stroke="#393232" stroke-width="1.75" stroke-linecap="round" stroke-linejoin="round"/>
<path d="M16 26H22.6667" stroke="#393232" stroke-width="1.75" stroke-linecap="round" stroke-linejoin="round"/>
</g>
<defs>
<clipPath id="clip0_690_5402">
<rect width="40" height="40" fill="white" transform="translate(11 11)"/>
</clipPath>
</defs>
</svg>
